<?xml version="1.0" encoding="UTF-8"?>
<!DOCTYPE svg PUBLIC "-//W3C//DTD SVG 1.1//EN" "http://www.w3.org/Graphics/SVG/1.1/DTD/svg11.dtd">
<svg xmlns="http://www.w3.org/2000/svg" version="1.1" width="506px" height="150px" style="shape-rendering:geometricPrecision; text-rendering:geometricPrecision; image-rendering:optimizeQuality; fill-rule:evenodd; clip-rule:evenodd" xmlns:xlink="http://www.w3.org/1999/xlink">
<g><path style="opacity:0.86" fill="#9c9d9e" d="M 476.5,0.5 C 476.5,4.16667 476.5,7.83333 476.5,11.5C 475.213,10.1286 474.547,8.29531 474.5,6C 474.547,3.70469 475.213,1.87135 476.5,0.5 Z"/></g>
<g><path style="opacity:0.973" fill="#fafafa" d="M 476.5,0.5 C 482.833,0.5 489.167,0.5 495.5,0.5C 495.5,18.5 495.5,36.5 495.5,54.5C 497.833,54.5 500.167,54.5 502.5,54.5C 502.5,57.8333 502.5,61.1667 502.5,64.5C 493.167,64.5 483.833,64.5 474.5,64.5C 474.5,60.5 474.5,56.5 474.5,52.5C 477.167,52.5 479.833,52.5 482.5,52.5C 482.5,38.8333 482.5,25.1667 482.5,11.5C 480.5,11.5 478.5,11.5 476.5,11.5C 476.5,7.83333 476.5,4.16667 476.5,0.5 Z"/></g>
<g><path style="opacity:0.652" fill="#999a9b" d="M 495.5,0.5 C 496.497,17.6586 496.83,34.992 496.5,52.5C 499.119,52.2317 501.619,52.565 504,53.5C 504.167,55.3333 504.333,57.1667 504.5,59C 504.453,61.2953 503.787,63.1286 502.5,64.5C 502.5,61.1667 502.5,57.8333 502.5,54.5C 500.167,54.5 497.833,54.5 495.5,54.5C 495.5,36.5 495.5,18.5 495.5,0.5 Z"/></g>
<g><path style="opacity:0.996" fill="#4f5db7" d="M 67.5,1.5 C 69.698,1.12012 71.3646,1.78679 72.5,3.5C 71.4168,3.46056 70.4168,3.12723 69.5,2.5C 68.8332,8.31946 68.1665,13.9861 67.5,19.5C 67.5,13.5 67.5,7.5 67.5,1.5 Z"/></g>
<g><path style="opacity:0.979" fill="#6544e4" d="M 72.5,3.5 C 92.9389,14.2209 113.272,25.2209 133.5,36.5C 134.666,61.8268 134.833,87.1601 134,112.5C 112.639,124.682 91.1388,136.682 69.5,148.5C 68.8356,145.854 68.5022,143.021 68.5,140C 68.6721,136.318 69.3387,132.818 70.5,129.5C 84.6369,121.262 98.9702,113.262 113.5,105.5C 115.53,106.272 117.363,105.606 119,103.5C 119.829,84.6621 119.662,65.9955 118.5,47.5C 110.273,42.6946 102.773,38.3613 96,34.5C 95.6667,34.8333 95.3333,35.1667 95,35.5C 86.1884,29.8443 77.0217,24.8443 67.5,20.5C 67.5,20.1667 67.5,19.8333 67.5,19.5C 68.1665,13.9861 68.8332,8.31946 69.5,2.5C 70.4168,3.12723 71.4168,3.46056 72.5,3.5 Z"/></g>
<g><path style="opacity:0.986" fill="#2ae6c4" d="M 67.5,1.5 C 67.5,7.5 67.5,13.5 67.5,19.5C 67.5,19.8333 67.5,20.1667 67.5,20.5C 64.1667,22.1667 60.8333,23.8333 57.5,25.5C 57.44,24.9569 57.1067,24.6236 56.5,24.5C 49.4455,28.6939 42.1122,32.3606 34.5,35.5C 33.7025,35.9569 33.3691,36.6236 33.5,37.5C 28.1468,40.9333 22.6468,44.2666 17,47.5C 16.8331,71.8402 16.3331,96.1735 15.5,120.5C 11.2673,117.885 6.934,115.552 2.5,113.5C 2.33336,88.4978 2.50003,63.4978 3,38.5C 4.41704,37.9221 5.25038,36.9221 5.5,35.5C 25.5603,23.135 46.227,11.8017 67.5,1.5 Z"/></g>
<g><path style="opacity:0.962" fill="#f2f3f3" d="M 221.5,4.5 C 227.176,4.33391 232.843,4.50058 238.5,5C 241.811,5.29534 243.811,6.962 244.5,10C 243.75,13.1635 243.084,16.3301 242.5,19.5C 238.471,19.047 234.471,18.3803 230.5,17.5C 220.031,18.5668 214.365,24.4001 213.5,35C 214.231,46.0631 220.064,52.2297 231,53.5C 235.066,52.4186 239.233,51.7519 243.5,51.5C 244.291,54.4168 244.291,57.2501 243.5,60C 244.973,60.7096 245.64,61.8762 245.5,63.5C 233,67.1091 221,65.9424 209.5,60C 199.583,49.0797 197.083,36.5797 202,22.5C 205.545,13.1157 212.045,7.11568 221.5,4.5 Z"/></g>
<g><path style="opacity:0.921" fill="#f9f9f9" d="M 371.5,6.5 C 373.423,10.0293 374.089,14.0293 373.5,18.5C 377.167,18.5 380.833,18.5 384.5,18.5C 384.5,22.5 384.5,26.5 384.5,30.5C 380.833,30.5 377.167,30.5 373.5,30.5C 373.334,37.5079 373.5,44.5079 374,51.5C 376.506,53.8232 379.34,54.1565 382.5,52.5C 388.617,62.2611 385.95,66.5944 374.5,65.5C 369.254,66.4583 365.087,64.7917 362,60.5C 360.718,50.9329 360.051,41.2663 360,31.5C 357.959,30.5769 355.792,30.2436 353.5,30.5C 353.5,26.5 353.5,22.5 353.5,18.5C 355.792,18.7564 357.959,18.4231 360,17.5C 360.498,14.5184 360.665,11.5184 360.5,8.5C 364.337,8.06914 368.003,7.40247 371.5,6.5 Z"/></g>
<g><path style="opacity:0.97" fill="#f4f4f4" d="M 271.5,16.5 C 291.039,18.227 299.206,28.8937 296,48.5C 290.301,63.93 279.468,69.0967 263.5,64C 254.437,59.4001 249.771,51.9001 249.5,41.5C 249.879,26.7999 257.212,18.4666 271.5,16.5 Z M 271.5,29.5 C 281.908,31.3022 285.408,37.3022 282,47.5C 277.825,54.2748 272.492,55.2748 266,50.5C 262.515,44.1863 262.682,38.0196 266.5,32C 268.491,31.6264 270.158,30.793 271.5,29.5 Z"/></g>
<g><path style="opacity:0.94" fill="#f9f9f9" d="M 305.5,64.5 C 305.5,49.1667 305.5,33.8333 305.5,18.5C 309.833,18.5 314.167,18.5 318.5,18.5C 318.367,23.2717 319.7,23.4384 322.5,19C 330.705,15.5619 338.205,16.7285 345,22.5C 345.862,24.087 346.529,25.7536 347,27.5C 347.5,39.8288 347.667,52.1622 347.5,64.5C 343.167,64.5 338.833,64.5 334.5,64.5C 334.666,54.4944 334.5,44.4944 334,34.5C 333.703,31.136 331.869,29.8026 328.5,30.5C 323.818,30.7592 320.652,33.0925 319,37.5C 318.5,46.4938 318.334,55.4938 318.5,64.5C 314.167,64.5 309.833,64.5 305.5,64.5 Z"/></g>
<g><path style="opacity:0.91" fill="#f9f9f9" d="M 416.5,16.5 C 418.971,16.233 420.638,17.233 421.5,19.5C 420.803,23.4705 420.303,27.4705 420,31.5C 414.842,31.358 410.842,33.358 408,37.5C 407.667,46.1667 407.333,54.8333 407,63.5C 402.599,64.4667 398.099,64.8 393.5,64.5C 393.5,49.1667 393.5,33.8333 393.5,18.5C 397.846,18.3343 402.179,18.501 406.5,19C 407.191,20.0674 407.691,21.2341 408,22.5C 410.234,19.399 413.067,17.399 416.5,16.5 Z"/></g>
<g><path style="opacity:0.965" fill="#f3f3f3" d="M 446.5,16.5 C 467.867,19.5339 475.367,31.5339 469,52.5C 462.802,63.8429 453.302,68.0096 440.5,65C 432.667,62.5 427.5,57.3333 425,49.5C 421.248,30.9378 428.415,19.9378 446.5,16.5 Z M 446.5,29.5 C 454.652,31.1049 457.818,36.1049 456,44.5C 455.55,46.519 454.717,48.3523 453.5,50C 454.345,51.5581 453.679,52.5581 451.5,53C 442.665,54.18 437.998,50.18 437.5,41C 437.807,34.8174 440.807,30.9841 446.5,29.5 Z"/></g>
<g><path style="opacity:0.864" fill="#959698" d="M 305.5,18.5 C 305.5,33.8333 305.5,49.1667 305.5,64.5C 304.169,57.197 303.502,49.5303 303.5,41.5C 303.502,33.4697 304.169,25.803 305.5,18.5 Z"/></g>
<g><path style="opacity:0.451" fill="#28bba1" d="M 57.5,25.5 C 51.163,29.7977 44.663,33.1311 38,35.5C 37,36.5 36,37.5 35,38.5C 34.6174,37.944 34.1174,37.6107 33.5,37.5C 33.3691,36.6236 33.7025,35.9569 34.5,35.5C 42.1122,32.3606 49.4455,28.6939 56.5,24.5C 57.1067,24.6236 57.44,24.9569 57.5,25.5 Z"/></g>
<g><path style="opacity:1" fill="#4f61b0" d="M 65.5,35.5 C 67.1667,34.1667 68.8333,34.1667 70.5,35.5C 68.55,40.7351 67.8833,46.4018 68.5,52.5C 68.1457,46.594 67.1457,40.9273 65.5,35.5 Z"/></g>
<g><path style="opacity:0.976" fill="#2be5c3" d="M 65.5,35.5 C 67.1457,40.9273 68.1457,46.594 68.5,52.5C 68.5,52.8333 68.5,53.1667 68.5,53.5C 61.396,56.8861 54.396,60.5528 47.5,64.5C 46.1667,82.8333 46.1667,101.167 47.5,119.5C 54.1938,123.179 60.8605,126.846 67.5,130.5C 68.12,136.926 67.4533,142.926 65.5,148.5C 54.1939,142.179 42.8606,135.845 31.5,129.5C 30.1667,104.5 30.1667,79.5 31.5,54.5C 42.8878,48.1425 54.2211,41.8092 65.5,35.5 Z"/></g>
<g><path style="opacity:0.989" fill="#6444e3" d="M 70.5,35.5 C 82.1122,41.9394 93.6122,48.6061 105,55.5C 105.667,68.8333 105.667,82.1667 105,95.5C 92.8002,102.848 80.3002,109.515 67.5,115.5C 67.5,115.167 67.5,114.833 67.5,114.5C 68.1667,99.5 68.8333,84.5 69.5,69.5C 70.4916,69.3284 71.1583,69.6618 71.5,70.5C 71.7496,71.9221 72.583,72.9221 74,73.5C 74.4996,80.1583 74.6663,86.825 74.5,93.5C 77.6817,93.416 80.015,92.0827 81.5,89.5C 83.6916,87.3298 86.3583,85.9965 89.5,85.5C 89.6663,78.825 89.4996,72.1583 89,65.5C 82.3855,61.11 75.5522,57.11 68.5,53.5C 68.5,53.1667 68.5,52.8333 68.5,52.5C 67.8833,46.4018 68.55,40.7351 70.5,35.5 Z"/></g>
<g><path style="opacity:0.98" fill="#27bda3" d="M 5.5,35.5 C 5.25038,36.9221 4.41704,37.9221 3,38.5C 2.50003,63.4978 2.33336,88.4978 2.5,113.5C 1.16752,101.185 0.500852,88.5181 0.5,75.5C 0.666667,62.8333 0.833333,50.1667 1,37.5C 2.32972,36.4178 3.82972,35.7512 5.5,35.5 Z"/></g>
<g><path style="opacity:0.631" fill="#4b389f" d="M 118.5,47.5 C 119.662,65.9955 119.829,84.6621 119,103.5C 117.363,105.606 115.53,106.272 113.5,105.5C 114.848,104.399 116.348,103.399 118,102.5C 118.5,84.1697 118.667,65.8364 118.5,47.5 Z"/></g>
<g><path style="opacity:1" fill="#5067bd" d="M 65.5,69.5 C 66.8333,68.1667 68.1667,68.1667 69.5,69.5C 68.8333,84.5 68.1667,99.5 67.5,114.5C 68.1503,99.1294 67.4837,84.1294 65.5,69.5 Z"/></g>
<g><path style="opacity:0.842" fill="#2be7c5" d="M 65.5,69.5 C 67.4837,84.1294 68.1503,99.1294 67.5,114.5C 67.5,114.833 67.5,115.167 67.5,115.5C 64.6572,114.828 62.1572,113.495 60,111.5C 59.3333,98.5 59.3333,85.5 60,72.5C 61.7409,71.2423 63.5742,70.2423 65.5,69.5 Z"/></g>
<g><path style="opacity:0.858" fill="#533bb5" d="M 71.5,70.5 C 73.1703,70.7512 74.6703,71.4178 76,72.5C 76.3333,78.8333 76.6667,85.1667 77,91.5C 78.3297,90.4178 79.8297,89.7512 81.5,89.5C 80.015,92.0827 77.6817,93.416 74.5,93.5C 74.6663,86.825 74.4996,80.1583 74,73.5C 72.583,72.9221 71.7496,71.9221 71.5,70.5 Z"/></g>
<g><path style="opacity:0.105" fill="#adaeaf" d="M 210.5,75.5 C 215.234,74.1764 220.067,74.1764 225,75.5C 225.167,85.1667 225.333,94.8333 225.5,104.5C 225.499,114.524 224.832,124.191 223.5,133.5C 223.5,114.167 223.5,94.8333 223.5,75.5C 219.167,75.5 214.833,75.5 210.5,75.5 Z"/></g>
<g><path style="opacity:0.906" fill="#fdfdfd" d="M 210.5,75.5 C 214.833,75.5 219.167,75.5 223.5,75.5C 223.5,94.8333 223.5,114.167 223.5,133.5C 219.167,133.5 214.833,133.5 210.5,133.5C 210.5,114.167 210.5,94.8333 210.5,75.5 Z"/></g>
<g><path style="opacity:0.956" fill="#f4f4f4" d="M 292.5,124.5 C 292.666,115.827 292.5,107.16 292,98.5C 291.617,99.056 291.117,99.3893 290.5,99.5C 288.5,99.5 286.5,99.5 284.5,99.5C 284.5,95.5 284.5,91.5 284.5,87.5C 286.5,87.5 288.5,87.5 290.5,87.5C 290.5,84.5 290.5,81.5 290.5,78.5C 295.176,77.6647 299.843,77.1647 304.5,77C 305.456,80.3936 305.789,83.8936 305.5,87.5C 309.106,87.2108 312.606,87.5442 316,88.5C 316.499,92.1516 316.665,95.8183 316.5,99.5C 312.833,99.5 309.167,99.5 305.5,99.5C 305.334,106.841 305.5,114.174 306,121.5C 309.095,122.395 312.262,122.395 315.5,121.5C 316.005,124.521 316.672,127.521 317.5,130.5C 316.577,132.636 314.911,133.802 312.5,134C 306.164,135.221 300.164,134.387 294.5,131.5C 292.177,129.438 291.51,127.105 292.5,124.5 Z"/></g>
<g><path style="opacity:0.962" fill="#f3f4f4" d="M 261.5,85.5 C 269.006,85 274.506,88 278,94.5C 279.443,107.426 279.943,120.426 279.5,133.5C 275.167,133.5 270.833,133.5 266.5,133.5C 266.875,122.778 266.375,112.111 265,101.5C 258.429,97.9349 253.429,99.6016 250,106.5C 249.5,115.494 249.334,124.494 249.5,133.5C 244.833,133.5 240.167,133.5 235.5,133.5C 235.5,118.167 235.5,102.833 235.5,87.5C 239.846,87.3343 244.179,87.501 248.5,88C 249.191,89.0674 249.691,90.2341 250,91.5C 253.321,88.3055 257.154,86.3055 261.5,85.5 Z"/></g>
<g><path style="opacity:0.924" fill="#f6f6f6" d="M 393.5,86.5 C 394.919,87.4511 396.585,87.7845 398.5,87.5C 398.263,88.791 398.596,89.791 399.5,90.5C 399.5,94.1667 399.5,97.8333 399.5,101.5C 393.41,100.137 388.91,102.137 386,107.5C 385.5,116.16 385.334,124.827 385.5,133.5C 380.833,133.5 376.167,133.5 371.5,133.5C 371.333,118.496 371.5,103.496 372,88.5C 376.401,87.5333 380.901,87.2 385.5,87.5C 385.343,88.8734 385.51,90.2068 386,91.5C 387.886,88.758 390.386,87.0913 393.5,86.5 Z"/></g>
<g><path style="opacity:0.784" fill="#9a9b9c" d="M 399.5,90.5 C 398.596,89.791 398.263,88.791 398.5,87.5C 396.585,87.7845 394.919,87.4511 393.5,86.5C 396.649,84.7715 398.982,85.6048 400.5,89C 400.43,89.7648 400.097,90.2648 399.5,90.5 Z"/></g>
<g><path style="opacity:0.958" fill="#f8f8f8" d="M 406.5,132.5 C 407.496,118.01 407.829,103.343 407.5,88.5C 410.833,88.5 414.167,88.5 417.5,88.5C 417.187,91.2469 417.52,93.9135 418.5,96.5C 419.386,95.675 419.719,94.675 419.5,93.5C 427.817,83.8182 436.984,83.1515 447,91.5C 447.862,93.087 448.529,94.7536 449,96.5C 449.5,108.829 449.667,121.162 449.5,133.5C 445.167,133.5 440.833,133.5 436.5,133.5C 436.666,123.828 436.5,114.161 436,104.5C 435.502,101 433.502,99.3332 430,99.5C 425.487,100.094 422.154,102.427 420,106.5C 419.5,115.494 419.334,124.494 419.5,133.5C 414.968,133.818 410.634,133.485 406.5,132.5 Z"/></g>
<g><path style="opacity:0.967" fill="#f2f2f2" d="M 478.5,85.5 C 490.997,85.194 499.164,90.8607 503,102.5C 506.135,125.361 496.301,135.861 473.5,134C 462.353,130.23 456.687,122.396 456.5,110.5C 457.191,96.0215 464.524,87.6881 478.5,85.5 Z M 479.5,98.5 C 486.343,99.4823 490.009,103.482 490.5,110.5C 489.964,118.879 485.631,122.713 477.5,122C 471.467,116.37 470.301,109.87 474,102.5C 475.812,101.023 477.645,99.6896 479.5,98.5 Z"/></g>
<g><path style="opacity:0.971" fill="#abacad" d="M 419.5,93.5 C 419.719,94.675 419.386,95.675 418.5,96.5C 417.52,93.9135 417.187,91.2469 417.5,88.5C 414.167,88.5 410.833,88.5 407.5,88.5C 407.829,103.343 407.496,118.01 406.5,132.5C 405.504,117.676 405.171,102.676 405.5,87.5C 410.167,87.5 414.833,87.5 419.5,87.5C 419.5,89.5 419.5,91.5 419.5,93.5 Z"/></g>
<g><path style="opacity:0.942" fill="#f1f1f1" d="M 340.5,85.5 C 352.565,85.3146 360.065,90.9813 363,102.5C 363.499,106.821 363.666,111.154 363.5,115.5C 353.828,115.334 344.161,115.5 334.5,116C 335.833,118.667 337.833,120.667 340.5,122C 346.95,122.768 353.283,122.268 359.5,120.5C 360.212,123.875 360.712,127.209 361,130.5C 358.53,132.438 355.696,133.604 352.5,134C 326.817,136.314 316.651,124.814 322,99.5C 325.866,91.704 332.032,87.0373 340.5,85.5 Z M 349.5,103.5 C 344.221,103.588 339.221,103.588 334.5,103.5C 337.213,98.8122 341.213,97.3122 346.5,99C 348.141,100.129 349.141,101.629 349.5,103.5 Z"/></g>
<g><path style="opacity:0.383" fill="#a8a9aa" d="M 292.5,124.5 C 290.532,116.567 289.865,108.234 290.5,99.5C 291.117,99.3893 291.617,99.056 292,98.5C 292.5,107.16 292.666,115.827 292.5,124.5 Z"/></g>
<g><path style="opacity:1" fill="#4f5faf" d="M 70.5,129.5 C 69.3387,132.818 68.6721,136.318 68.5,140C 68.5022,143.021 68.8356,145.854 69.5,148.5C 69.5,148.833 69.5,149.167 69.5,149.5C 68.1667,149.5 66.8333,149.5 65.5,149.5C 65.5,149.167 65.5,148.833 65.5,148.5C 67.4533,142.926 68.12,136.926 67.5,130.5C 68.391,129.89 69.391,129.557 70.5,129.5 Z"/></g>
</svg>
