<?xml version="1.0" standalone="no"?>
<!DOCTYPE svg PUBLIC "-//W3C//DTD SVG 20010904//EN"
 "http://www.w3.org/TR/2001/REC-SVG-20010904/DTD/svg10.dtd">
<svg version="1.0" xmlns="http://www.w3.org/2000/svg"
 width="506.000000pt" height="150.000000pt" viewBox="0 0 506.000000 150.000000"
 preserveAspectRatio="xMidYMid meet">
<metadata>
Created by potrace 1.16, written by Peter Selinger 2001-2019
</metadata>
<g transform="translate(0.000000,150.000000) scale(0.100000,-0.100000)"
fill="#000000" stroke="none">
<path d="M0 750 l0 -750 2530 0 2530 0 0 750 0 750 -2530 0 -2530 0 0 -750z
m4970 481 l0 -260 38 -3 37 -3 3 -57 3 -58 -151 0 -150 0 0 60 0 60 40 0 40 0
0 205 0 205 -40 0 -40 0 0 55 0 55 110 0 110 0 0 -259z m-4290 149 c0 -72 -3
-88 -14 -84 -7 3 -20 -2 -29 -10 -8 -8 -17 -12 -21 -9 -3 4 -6 -1 -6 -10 0 -9
-3 -17 -7 -18 -5 0 -18 -2 -31 -3 -13 -2 -30 -12 -38 -24 -9 -13 -26 -22 -40
-22 -13 0 -34 -11 -46 -25 -12 -14 -31 -25 -43 -25 -11 0 -32 -8 -45 -17 -27
-20 -81 -51 -148 -84 l-42 -21 0 -365 0 -364 -22 7 c-13 4 -35 16 -49 27 -16
11 -32 16 -40 12 -8 -5 -10 -4 -5 3 4 7 1 12 -8 12 -9 0 -17 1 -18 3 -7 7 -12
754 -5 750 5 -3 15 4 23 16 9 12 20 18 26 15 6 -4 13 -3 17 2 7 11 58 44 66
44 11 -1 62 30 74 44 7 9 17 13 22 10 5 -3 9 0 9 6 0 6 4 8 10 5 6 -3 10 -1
10 6 0 7 3 10 6 6 3 -3 15 3 27 13 11 11 24 17 29 14 4 -3 8 0 8 6 0 6 5 8 10
5 6 -3 10 -1 10 6 0 7 3 10 6 6 3 -3 15 3 27 13 11 11 24 17 29 14 4 -3 8 0 8
6 0 6 5 8 10 5 6 -3 10 -1 10 6 0 7 3 10 6 6 3 -3 15 3 27 13 11 11 24 17 29
14 4 -3 8 0 8 6 0 6 5 8 10 5 6 -3 10 -1 10 5 0 6 4 9 9 6 5 -3 11 0 14 8 3 7
19 16 35 19 17 3 36 13 44 21 22 24 28 8 28 -84z m96 44 c22 -13 44 -21 47
-17 4 3 7 1 7 -6 0 -7 5 -9 10 -6 6 3 10 2 10 -4 0 -13 55 -42 64 -34 3 4 6 1
6 -5 0 -15 57 -45 70 -37 6 4 13 -1 16 -10 8 -19 61 -48 74 -40 6 4 13 -1 16
-10 8 -19 61 -48 74 -40 6 4 13 -1 16 -10 8 -19 61 -48 74 -40 6 3 10 0 10 -8
0 -8 18 -22 40 -32 l40 -18 0 -309 c0 -280 -2 -308 -17 -308 -15 0 -15 -2 -1
-17 20 -23 22 -106 2 -99 -7 3 -14 2 -16 -2 -5 -12 -95 -62 -112 -62 -8 0 -30
-13 -48 -30 -18 -17 -43 -30 -55 -30 -13 0 -23 -5 -23 -11 0 -5 -15 -16 -32
-24 -18 -7 -48 -25 -67 -39 -19 -14 -42 -26 -50 -26 -9 0 -29 -11 -45 -25 -16
-14 -37 -25 -47 -25 -10 0 -23 -8 -28 -18 -6 -9 -11 -13 -11 -9 0 5 -7 1 -16
-7 -8 -9 -24 -16 -34 -16 -11 0 -24 -8 -29 -17 -6 -10 -11 -13 -11 -8 0 6 -5
3 -10 -5 -7 -10 -10 11 -10 68 0 58 4 88 14 97 7 8 16 11 20 8 3 -4 6 -1 6 6
0 7 5 9 10 6 6 -3 10 -1 10 5 0 6 5 8 10 5 6 -3 10 -2 10 2 0 5 16 15 35 22
19 7 35 17 35 22 0 6 5 7 10 4 6 -3 10 -2 10 2 0 5 16 15 35 22 19 7 40 18 47
24 7 7 32 21 55 31 24 11 43 25 43 33 0 8 4 11 10 8 15 -9 92 34 84 47 -4 7
-3 8 4 4 6 -4 25 0 42 9 l30 16 -2 282 -3 282 -120 67 c-66 37 -126 66 -133
63 -7 -3 -11 -1 -7 4 5 10 -182 118 -197 113 -4 -1 -8 2 -8 6 0 5 -11 14 -25
20 -23 11 -25 16 -25 87 0 75 1 76 23 69 12 -3 40 -17 63 -30z m1639 12 c38
-16 41 -25 24 -92 -11 -44 -13 -46 -43 -40 -97 19 -115 18 -160 -3 -141 -69
-118 -296 33 -330 28 -6 65 -6 104 0 33 5 62 8 64 5 3 -2 6 -23 6 -45 1 -23 5
-41 10 -41 4 0 7 -6 7 -13 0 -22 -99 -40 -183 -35 -103 7 -180 45 -224 111
-108 161 -36 422 133 482 52 19 185 19 229 1z m1325 -66 l0 -60 55 0 55 0 0
-60 0 -60 -55 0 -56 0 3 -112 3 -113 48 1 c46 0 47 -1 57 -35 5 -20 10 -43 10
-53 0 -22 -50 -38 -122 -38 -55 0 -63 3 -94 34 l-34 34 0 141 0 141 -35 0 -35
0 0 60 0 60 35 0 35 0 0 50 c0 54 -8 48 90 63 14 3 28 5 33 6 4 0 7 -26 7 -59z
m-895 -66 c72 -30 117 -105 123 -206 7 -114 -34 -193 -123 -234 -120 -56 -260
-12 -317 100 -16 30 -21 60 -21 112 0 102 33 174 100 215 60 37 166 43 238 13z
m569 -3 c58 -32 66 -66 66 -268 l0 -183 -65 0 -65 0 0 144 c0 177 -6 196 -57
196 -40 0 -73 -21 -92 -57 -6 -13 -11 -76 -11 -152 l0 -131 -75 0 -75 0 0 230
0 230 75 0 c70 0 75 -1 75 -22 l0 -21 23 21 c43 41 141 47 201 13z m790 23
c12 -4 14 -17 10 -57 -9 -93 -11 -97 -47 -97 -17 0 -43 -9 -57 -20 -24 -18
-25 -24 -30 -157 l-5 -138 -67 -3 -68 -3 0 231 0 231 68 -3 c66 -3 67 -4 67
-30 l-1 -27 28 34 c16 18 38 36 51 38 12 2 25 5 29 6 3 0 13 -2 22 -5z m347
-9 c53 -8 113 -56 139 -111 45 -91 27 -229 -38 -298 -59 -62 -183 -85 -268
-50 -46 19 -100 74 -120 122 -18 45 -18 160 1 205 19 46 71 106 104 119 34 14
101 26 126 22 11 -2 36 -5 56 -9z m-3871 -266 c0 -75 -1 -80 -25 -91 -14 -6
-25 -14 -25 -18 0 -4 -20 -15 -45 -24 -25 -10 -45 -21 -45 -26 0 -5 -16 -14
-35 -20 l-35 -12 0 -277 c0 -266 1 -277 20 -291 22 -16 54 -34 116 -65 71 -35
74 -40 74 -126 0 -43 -3 -80 -7 -82 -8 -4 -327 171 -350 192 -10 9 -13 95 -13
366 0 312 2 355 16 370 17 16 109 66 120 64 4 0 10 4 13 9 3 6 13 12 21 14 8
2 23 11 34 20 10 10 23 15 28 12 4 -3 8 0 8 6 0 6 5 8 10 5 6 -3 10 -1 10 6 0
7 3 10 6 6 3 -3 15 3 27 13 11 11 24 17 29 14 4 -3 8 0 8 6 0 6 5 8 10 5 6 -3
10 -1 10 5 0 6 5 8 10 5 6 -3 10 -42 10 -86z m64 56 c15 -14 35 -25 45 -25 10
0 30 -11 45 -25 15 -14 35 -25 44 -25 10 0 25 -9 34 -20 10 -11 30 -22 45 -26
15 -4 36 -15 46 -25 10 -11 22 -19 27 -19 6 0 10 -75 10 -190 0 -157 -3 -195
-16 -215 -8 -13 -22 -21 -29 -19 -7 3 -22 -3 -33 -14 -11 -11 -23 -18 -26 -15
-3 4 -6 0 -6 -7 0 -7 -3 -11 -6 -7 -9 8 -64 -21 -64 -34 0 -6 -4 -7 -10 -4 -5
3 -10 2 -10 -3 0 -5 -6 -9 -12 -9 -7 0 -41 -16 -75 -36 l-63 -36 0 225 c0 236
-1 232 42 195 15 -13 18 -32 18 -119 0 -57 3 -102 8 -100 4 2 39 20 77 41 l70
39 -2 116 c-1 79 -5 116 -12 115 -6 -2 -11 1 -11 6 0 5 -16 15 -35 22 -19 7
-35 17 -35 22 0 4 -4 5 -10 2 -5 -3 -10 -1 -10 5 0 6 -4 8 -10 5 -5 -3 -10 -2
-10 4 0 5 -15 15 -34 21 -42 13 -46 23 -46 111 0 78 9 85 54 44z m-64 -529 c0
-124 -4 -227 -8 -230 -5 -3 -16 4 -25 15 -9 10 -24 19 -32 19 -13 0 -15 28
-15 194 l0 194 33 16 c17 8 35 16 40 16 4 0 7 -101 7 -224z m1578 -123 l2
-293 -75 0 -75 0 0 295 0 296 73 -3 72 -3 3 -292z m800 219 l3 -51 52 -3 52
-3 3 -57 3 -58 -56 0 -56 0 3 -112 3 -113 47 2 46 1 11 -43 c15 -61 15 -60
-28 -73 -57 -18 -131 -14 -171 8 -19 11 -30 19 -25 20 6 0 2 7 -9 15 -11 8
-16 21 -13 30 4 8 2 15 -3 15 -6 0 -10 51 -10 125 l0 125 -30 0 -30 0 0 60 0
60 30 0 c29 0 30 2 30 44 l0 45 48 6 c26 3 54 8 62 9 29 7 35 -1 38 -52z
m-333 -55 c24 -12 46 -41 62 -82 7 -18 12 -96 12 -202 l1 -173 -64 0 -64 0 -4
153 c-3 172 -9 187 -65 187 -26 0 -43 -8 -69 -34 l-34 -34 0 -136 0 -136 -70
0 -70 0 0 230 0 230 65 0 65 0 0 -37 1 -38 15 28 c8 15 21 27 28 27 8 0 16 5
18 11 9 27 125 31 173 6z m788 7 c15 -3 27 -10 27 -15 0 -5 5 -9 11 -9 36 0
81 -97 87 -187 l5 -73 -147 0 c-81 0 -146 -4 -146 -9 0 -5 14 -21 32 -36 30
-25 37 -27 102 -22 39 3 80 8 92 12 19 6 22 1 31 -45 l11 -52 -37 -15 c-48
-21 -166 -28 -219 -14 -59 16 -127 83 -142 141 -26 99 8 252 65 284 10 6 25
17 33 23 7 7 23 15 35 18 12 2 31 6 42 9 20 4 64 1 118 -10z m484 4 c6 -7 8
-43 5 -80 l-4 -68 -38 0 c-30 0 -46 -7 -69 -31 l-31 -31 0 -129 0 -129 -70 0
-70 0 2 228 3 227 68 3 c64 3 67 2 67 -19 0 -23 0 -23 28 3 41 39 90 50 109
26z m423 -9 c14 -5 36 -26 50 -46 24 -35 25 -43 28 -225 l3 -188 -65 0 -66 0
0 148 c0 170 -7 192 -65 192 -24 0 -43 -9 -69 -34 l-36 -33 0 -137 0 -137 -67
3 -68 3 -3 228 -2 227 70 0 70 0 0 -30 0 -31 31 32 c46 47 115 58 189 28z
m510 -13 c66 -32 103 -98 108 -188 5 -84 -10 -144 -50 -192 -102 -124 -334
-90 -393 57 -32 79 -19 207 27 267 67 86 199 110 308 56z"/>
<path d="M2710 1191 c-8 -5 -18 -8 -22 -5 -4 3 -17 -10 -28 -28 -36 -59 -20
-161 29 -188 35 -18 86 -12 110 14 43 46 46 146 4 187 -22 22 -73 33 -93 20z"/>
<path d="M4445 1188 c-35 -13 -42 -21 -55 -70 -13 -46 1 -109 31 -139 32 -32
118 -23 126 13 1 7 8 31 14 53 16 57 -2 120 -41 140 -33 17 -34 17 -75 3z"/>
<path d="M3372 490 c-12 -12 -22 -25 -22 -30 0 -6 35 -10 80 -10 44 0 80 4 80
8 0 5 -9 18 -20 30 -27 29 -88 30 -118 2z"/>
<path d="M4773 490 c-56 -34 -65 -130 -18 -197 12 -17 26 -23 55 -23 99 0 135
167 47 220 -40 25 -44 25 -84 0z"/>
</g>
</svg>
