<?xml version="1.0" standalone="no"?>
<!DOCTYPE svg PUBLIC "-//W3C//DTD SVG 20010904//EN"
 "http://www.w3.org/TR/2001/REC-SVG-20010904/DTD/svg10.dtd">
<svg version="1.0" xmlns="http://www.w3.org/2000/svg"
 width="509.000000pt" height="154.000000pt" viewBox="0 0 509.000000 154.000000"
 preserveAspectRatio="xMidYMid meet">
<metadata>
Created by potrace 1.16, written by Peter Selinger 2001-2019
</metadata>
<g transform="translate(0.000000,154.000000) scale(0.100000,-0.100000)"
fill="#000000" stroke="none">
<path d="M0 770 l0 -770 2545 0 2545 0 0 770 0 770 -2545 0 -2545 0 0 -770z
m730 700 c19 0 20 -6 20 -100 0 -63 -4 -100 -11 -100 -5 0 -26 -11 -46 -24
l-36 -25 44 -3 44 -3 3 -136 3 -137 -38 -23 c-21 -13 -47 -27 -58 -30 -12 -4
4 -7 38 -8 l57 -1 -2 -277 -3 -278 -50 -3 -50 -3 50 -27 50 -27 3 -88 c1 -48
7 -87 12 -87 6 0 10 -4 10 -10 0 -5 -11 -10 -25 -10 -13 0 -33 -9 -44 -21 -13
-14 -24 -18 -33 -13 -20 13 -81 34 -100 34 -9 0 -18 -5 -20 -11 -5 -14 -68 -2
-68 12 0 5 -7 9 -16 9 -9 0 -29 11 -46 25 -16 14 -38 25 -48 25 -9 0 -23 7
-31 16 -7 8 -25 22 -41 30 l-28 15 2 414 c2 228 1 415 -2 415 -27 0 -30 -36
-30 -382 l0 -358 -65 0 c-40 0 -78 6 -95 15 -29 15 -40 35 -20 35 19 0 10 40
-15 62 l-25 22 0 362 c0 352 1 364 20 374 25 14 38 59 19 71 -7 4 -11 10 -9
12 12 11 291 163 339 184 30 14 60 30 65 37 6 6 28 18 50 25 31 11 40 11 46 1
7 -11 20 -11 69 0 34 7 64 17 68 23 3 6 10 1 14 -11 5 -13 17 -22 29 -22z
m4263 20 c3 -12 14 -20 26 -20 21 0 21 -4 21 -210 0 -133 -4 -210 -10 -210
-11 0 -13 -30 -4 -54 3 -9 10 -14 14 -11 14 9 22 -15 23 -68 0 -43 -3 -52 -21
-58 -13 -5 -22 -17 -22 -29 0 -19 -6 -20 -151 -20 -141 0 -151 1 -156 19 -5
19 -6 19 -46 -2 -61 -32 -251 -37 -317 -9 -94 41 -132 102 -140 225 l-5 89
-27 -22 c-27 -21 -27 -22 -30 -158 l-3 -137 -135 -4 c-300 -10 -363 -8 -392
14 -42 31 -48 57 -48 195 0 80 -4 130 -10 130 -6 0 -10 -63 -10 -170 l0 -171
-117 3 -118 3 -5 164 -5 163 -20 -22 c-17 -19 -21 -40 -25 -164 l-5 -141 -120
0 -120 0 -3 43 c-3 47 -12 53 -27 20 -6 -12 -32 -33 -60 -47 -42 -22 -66 -26
-157 -29 -114 -4 -146 4 -215 55 l-33 24 0 -23 c0 -20 -8 -26 -45 -36 -25 -7
-69 -12 -98 -12 l-52 0 0 -62 0 -63 130 9 c179 12 296 12 321 -1 11 -7 39 -9
62 -6 42 6 42 6 42 48 0 40 2 43 33 49 68 12 166 18 191 12 24 -6 26 -11 26
-56 l0 -49 52 -3 c46 -3 53 -6 59 -28 4 -14 7 -20 8 -14 2 23 77 52 151 59 78
7 192 -7 198 -25 2 -6 8 -10 13 -10 6 0 23 -15 40 -32 l29 -32 0 31 c0 17 7
36 15 43 10 8 115 12 397 13 369 2 384 1 410 -18 15 -11 36 -37 46 -57 l19
-36 17 29 c9 16 24 29 32 29 8 0 14 4 14 9 0 5 21 18 48 28 35 13 74 18 157
18 99 0 115 -3 155 -25 29 -16 46 -33 48 -48 2 -12 -1 -22 -7 -22 -12 0 -15
-33 -4 -44 14 -14 32 -102 33 -157 0 -31 -9 -82 -20 -115 -22 -66 -25 -94 -10
-94 6 0 10 -7 10 -15 0 -9 -22 -26 -52 -40 -46 -21 -68 -25 -158 -25 -102 0
-190 19 -190 41 0 5 -6 9 -14 9 -8 0 -24 12 -35 26 l-21 27 0 -47 0 -46 -120
0 -120 0 0 154 c0 85 -4 157 -9 161 -5 3 -19 -7 -30 -21 -19 -24 -21 -40 -21
-160 l0 -134 -120 0 -120 0 0 160 c0 159 0 160 -23 160 -12 0 -35 -11 -50 -25
-27 -25 -27 -28 -27 -145 0 -65 -3 -125 -6 -134 -5 -13 -25 -16 -118 -16 -62
0 -116 4 -121 9 -6 6 -31 4 -65 -5 -76 -21 -282 -15 -326 9 -30 15 -34 15 -65
-1 -27 -13 -60 -17 -156 -17 -115 0 -123 1 -147 24 -36 34 -46 77 -48 211 -2
105 -3 100 -8 -55 l-5 -170 -115 0 -115 0 -2 140 c-3 148 -7 185 -23 185 -5 0
-16 -13 -25 -30 -11 -22 -15 -62 -15 -159 l0 -131 -247 3 -248 2 -3 240 c-2
132 0 287 3 344 6 90 10 104 26 108 15 4 12 10 -22 33 -61 40 -95 98 -109 182
-32 185 18 368 116 429 31 19 84 26 84 11 0 -4 67 -7 150 -7 82 0 150 3 150 8
0 4 12 7 26 7 l27 0 -5 -82 c-3 -46 -9 -92 -13 -103 -6 -13 2 -9 22 13 54 56
113 76 228 76 120 0 167 -14 218 -65 l37 -37 0 43 0 43 133 7 c188 11 300 10
323 -3 11 -6 39 -8 62 -5 41 5 41 6 44 51 3 45 4 46 43 54 22 5 74 7 115 6
l75 -3 3 -52 3 -53 107 -1 c163 -1 216 2 226 12 13 12 103 12 127 -1 10 -6 19
-19 19 -30 0 -19 1 -19 43 0 55 24 176 34 256 21 103 -17 172 -79 190 -172 8
-39 9 -35 10 44 l1 87 -35 0 -35 0 0 65 c0 58 2 65 20 65 10 0 24 9 30 20 10
18 21 20 114 20 95 0 104 -2 109 -20z"/>
<path d="M2279 1257 c-67 -55 -74 -114 -22 -166 39 -38 57 -43 134 -35 l66 6
7 80 c4 45 11 89 17 100 6 11 9 21 7 22 -2 2 -43 6 -93 9 -82 5 -92 3 -116
-16z"/>
</g>
</svg>
